<svg xmlns="http://www.w3.org/2000/svg" viewBox="0 0 317.59 10.86"><defs><style>.cls-1{fill-rule:evenodd;}</style></defs><title>bottom-banners</title><g id="light"><path class="cls-1" d="M67.56.38A5.83,5.83,0,0,0,66,.14c-3,0-5.36,1.94-5.36,4.88a6,6,0,0,0,5.71,5.7,7.12,7.12,0,0,0,1.23-.11c2.55-.46,4.87-2.32,4.87-4.85S70.05,1.1,67.56.38ZM68,8.17l-.47,0C65.77,7.93,63.92,6.65,63.92,5a3.42,3.42,0,0,1,3.45-3.4h.19a4,4,0,0,1,3.62,3.7C71.18,7.12,69.94,8.17,68,8.17Z"/><path class="cls-1" d="M64.9,5A1.92,1.92,0,0,1,66.84,3.1,2.18,2.18,0,0,1,69.05,5a2,2,0,0,1-2.13,1.74A1.86,1.86,0,0,1,64.9,5Z"/><path d="M81.77,2.92l0,5.32A2.55,2.55,0,0,1,79,10.86a3.22,3.22,0,0,1-2.91-1.53l1-.65A2,2,0,0,0,78.94,9.8a1.49,1.49,0,0,0,1.64-1.61V7.45a2.4,2.4,0,0,1-2,1A2.68,2.68,0,0,1,76,5.64a2.66,2.66,0,0,1,2.55-2.86,2.36,2.36,0,0,1,2,1V2.93Zm-1.2,2.69a1.67,1.67,0,1,0-3.33,0,1.6,1.6,0,0,0,1.67,1.74A1.62,1.62,0,0,0,80.57,5.61Z"/><path d="M86.74,8.4V7.47a2.22,2.22,0,0,1-2,1,2.11,2.11,0,0,1-2.18-2.28l0-3.32h1.22l0,3.19a1.22,1.22,0,0,0,1.36,1.34c1,0,1.53-.62,1.53-1.72l0-2.83H87.9l0,5.53Z"/><path d="M91.45,2.67a2.58,2.58,0,0,1,2.7,2.75v.52L90,6a1.5,1.5,0,0,0,1.56,1.49A1.55,1.55,0,0,0,93,6.53l1,.56a2.65,2.65,0,0,1-2.49,1.43,2.81,2.81,0,0,1-2.87-2.95A2.75,2.75,0,0,1,91.45,2.67Zm1.43,2.38a1.33,1.33,0,0,0-1.43-1.31A1.4,1.4,0,0,0,90,5.07Z"/><path d="M100.33,2.53V1h1.22l0,1.57h1.62v1h-1.63l0,3.17c0,.4.14.52.43.52a6.92,6.92,0,0,0,1.17-.15V8.14a8,8,0,0,1-1.52.14c-.9,0-1.3-.48-1.3-1.37l0-3.35h-.72v-1Z"/><path d="M106.56,2.56a2.63,2.63,0,0,1,2.76,2.09L108.11,5a1.44,1.44,0,0,0-1.52-1.3,1.69,1.69,0,0,0-1.65,1.83,1.66,1.66,0,0,0,1.68,1.81A1.41,1.41,0,0,0,108.12,6l1.22.29a2.59,2.59,0,0,1-2.73,2.13,2.83,2.83,0,0,1-2.9-2.9A2.83,2.83,0,0,1,106.56,2.56Z"/><path d="M112.86,2.51a2.58,2.58,0,0,1,2.7,2.75v.51l-4.18,0A1.5,1.5,0,0,0,113,7.29a1.52,1.52,0,0,0,1.48-.93l1,.57A2.66,2.66,0,0,1,113,8.36a2.81,2.81,0,0,1-2.87-2.95A2.73,2.73,0,0,1,112.86,2.51Zm1.43,2.38a1.35,1.35,0,0,0-1.43-1.32,1.4,1.4,0,0,0-1.48,1.34Z"/><path d="M117.52,2.64v.92a2.19,2.19,0,0,1,2-1,2.12,2.12,0,0,1,2.18,2.29l0,3.32h-1.22l0-3.21a1.22,1.22,0,0,0-1.37-1.32c-1,0-1.53.6-1.52,1.71l0,2.84h-1.22l0-5.52Z"/><path d="M127.66,3.33s.28-.8,1.54-.8h.59V3.6H129a1.15,1.15,0,0,0-1.26,1.25l0,3.23h-1.22l0-5.52h1.2Z"/><path d="M131.21,0a.86.86,0,0,1,.91.88.91.91,0,0,1-1.82,0A.87.87,0,0,1,131.21,0Zm.67,8.05h-1.22l0-5.52h1.22Z"/><path d="M135.72,2.39a2.62,2.62,0,0,1,2.77,2.08l-1.21.32a1.45,1.45,0,0,0-1.53-1.3,1.67,1.67,0,0,0-1.64,1.82,1.67,1.67,0,0,0,1.67,1.82,1.43,1.43,0,0,0,1.5-1.32l1.23.28a2.61,2.61,0,0,1-2.73,2.14,2.82,2.82,0,0,1-2.9-2.91A2.8,2.8,0,0,1,135.72,2.39Z"/><path d="M97,8.48a3.89,3.89,0,0,1-1.24-.21,4.2,4.2,0,0,1-1.16-.62l.57-.89a3.82,3.82,0,0,0,.94.52,2.8,2.8,0,0,0,.91.17,1.2,1.2,0,0,0,.65-.17.54.54,0,0,0,.22-.45v0a.4.4,0,0,0-.1-.28,1.06,1.06,0,0,0-.28-.2l-.41-.15L96.64,6a5.1,5.1,0,0,1-.63-.2,1.94,1.94,0,0,1-.57-.3A1.52,1.52,0,0,1,95,5.07a1.29,1.29,0,0,1-.16-.68v0A1.51,1.51,0,0,1,95,3.66a1.78,1.78,0,0,1,.43-.55,1.87,1.87,0,0,1,.64-.34,2.77,2.77,0,0,1,.78-.13,3.83,3.83,0,0,1,2.07.64l-.5.92a4.11,4.11,0,0,0-.83-.38,2.25,2.25,0,0,0-.77-.14,1,1,0,0,0-.58.16.53.53,0,0,0-.2.41v0a.36.36,0,0,0,.11.26.88.88,0,0,0,.28.2,2.67,2.67,0,0,0,.41.17l.47.15a6.5,6.5,0,0,1,.62.22,2.6,2.6,0,0,1,.57.31,1.61,1.61,0,0,1,.41.45,1.3,1.3,0,0,1,.17.65v0a1.73,1.73,0,0,1-.16.78,1.47,1.47,0,0,1-.44.55,2,2,0,0,1-.66.33A2.76,2.76,0,0,1,97,8.48Z"/><path d="M122.82,2.53V1H124V2.52h1.63v1h-1.63l0,3.17c0,.4.15.52.44.52a6.9,6.9,0,0,0,1.16-.15V8.14a8,8,0,0,1-1.52.14c-.9,0-1.3-.48-1.3-1.37l0-3.35h-.72v-1Z"/><path d="M2.66,1.21a2,2,0,0,1,2.2,2.08,2,2,0,0,1-2.2,2.09H.81V8.21H0v-7ZM.81,4.64H2.57A1.3,1.3,0,0,0,4,3.29,1.3,1.3,0,0,0,2.57,1.94H.81Z"/><path d="M7.93,3.19a2.43,2.43,0,0,1,2.5,2.58,2.43,2.43,0,0,1-2.5,2.58A2.43,2.43,0,0,1,5.44,5.77,2.42,2.42,0,0,1,7.93,3.19Zm0,4.47A1.72,1.72,0,0,0,9.66,5.77a1.74,1.74,0,1,0-3.46,0A1.71,1.71,0,0,0,7.93,7.66Z"/><path d="M11.94,3.33l.92,4.14H13l1.15-4.14h1.09l1.15,4.14h.12l.93-4.14h.78L17,8.21H15.89L14.74,4.07h-.12L13.47,8.21H12.33L11.16,3.33Z"/><path d="M21.38,3.19a2.24,2.24,0,0,1,2.35,2.4V6h-4a1.65,1.65,0,0,0,1.71,1.68,1.54,1.54,0,0,0,1.53-1l.67.34a2.26,2.26,0,0,1-2.19,1.33,2.47,2.47,0,0,1-2.52-2.62A2.43,2.43,0,0,1,21.38,3.19Zm1.55,2.17a1.44,1.44,0,0,0-1.55-1.49,1.58,1.58,0,0,0-1.65,1.49Z"/><path d="M25.58,4h.14c.19-.48.57-.67,1.22-.67h.63V4h-.79A1.08,1.08,0,0,0,25.6,5.22v3h-.77V3.33h.75Z"/><path d="M30.36,3.19a2.24,2.24,0,0,1,2.35,2.4V6h-4a1.65,1.65,0,0,0,1.71,1.68,1.54,1.54,0,0,0,1.53-1l.67.34a2.26,2.26,0,0,1-2.19,1.33,2.47,2.47,0,0,1-2.52-2.62A2.43,2.43,0,0,1,30.36,3.19Zm1.55,2.17a1.44,1.44,0,0,0-1.55-1.49,1.58,1.58,0,0,0-1.65,1.49Z"/><path d="M38.5,8.21h-.74V7.35h-.14a1.9,1.9,0,0,1-1.8,1A2.38,2.38,0,0,1,33.5,5.76a2.38,2.38,0,0,1,2.32-2.58,1.9,1.9,0,0,1,1.8,1h.12v-3h.76ZM34.28,5.76A1.7,1.7,0,0,0,36,7.65a1.73,1.73,0,0,0,1.75-1.89A1.73,1.73,0,0,0,36,3.87,1.7,1.7,0,0,0,34.28,5.76Z"/><path d="M43.82,1.21v3h.12a1.88,1.88,0,0,1,1.8-1,2.39,2.39,0,0,1,2.32,2.58,2.39,2.39,0,0,1-2.32,2.58,1.88,1.88,0,0,1-1.8-1H43.8v.85h-.75v-7Zm0,4.56a1.72,1.72,0,0,0,1.74,1.89,1.7,1.7,0,0,0,1.72-1.89,1.7,1.7,0,0,0-1.72-1.89A1.72,1.72,0,0,0,43.82,5.77Z"/><path d="M53.64,3.33l-2.93,6.88h-.82l.81-1.87-2.11-5h.82l1.65,4h.1l1.65-4Z"/><path d="M147.06,1.21V4.33h3.32V1.21h.8v7h-.8V5.07h-3.32V8.21h-.81v-7Z"/><path d="M154.83,3.19a2.43,2.43,0,0,1,2.5,2.58,2.5,2.5,0,1,1-5,0A2.42,2.42,0,0,1,154.83,3.19Zm0,4.47a1.72,1.72,0,0,0,1.73-1.89,1.74,1.74,0,1,0-3.46,0A1.71,1.71,0,0,0,154.83,7.66Z"/><path d="M159.32,3.33V1.58h.76V3.33h1.61V4h-1.61V7.25c0,.2.1.3.28.3h1v.66h-1.34a.71.71,0,0,1-.75-.77V4H157.8V3.33Z"/><path d="M164.86,3.19a2.24,2.24,0,0,1,2.35,2.4V6h-4a1.65,1.65,0,0,0,1.71,1.68,1.54,1.54,0,0,0,1.53-1l.67.34a2.26,2.26,0,0,1-2.19,1.33,2.47,2.47,0,0,1-2.52-2.62A2.43,2.43,0,0,1,164.86,3.19Zm1.55,2.17a1.44,1.44,0,0,0-1.55-1.49,1.58,1.58,0,0,0-1.65,1.49Z"/><path d="M169.08,8.21h-.77v-7h.77Z"/><path d="M174,1.21l1.09,6.13h.12l1.43-6.13H178l1.41,6.13h.12l1.09-6.13h.83l-1.27,7h-1.36l-1.42-6.13h-.12L175.8,8.21h-1.35l-1.27-7Z"/><path d="M184.4,3.19a2.23,2.23,0,0,1,2.34,2.4V6h-4a1.65,1.65,0,0,0,1.71,1.68,1.55,1.55,0,0,0,1.53-1l.66.34a2.25,2.25,0,0,1-2.18,1.33A2.47,2.47,0,0,1,182,5.73,2.43,2.43,0,0,1,184.4,3.19ZM186,5.36a1.44,1.44,0,0,0-1.55-1.49,1.58,1.58,0,0,0-1.65,1.49Z"/><path d="M188.62,1.21v3h.12a1.88,1.88,0,0,1,1.8-1,2.38,2.38,0,0,1,2.31,2.58,2.38,2.38,0,0,1-2.31,2.58,1.88,1.88,0,0,1-1.8-1h-.14v.85h-.75v-7Zm0,4.56a1.72,1.72,0,0,0,1.74,1.89,1.7,1.7,0,0,0,1.71-1.89,1.69,1.69,0,0,0-1.71-1.89A1.72,1.72,0,0,0,188.62,5.77Z"/><path d="M195.61,3.19A3,3,0,0,1,198,4.35l-.56.44a2.18,2.18,0,0,0-1.82-1c-.63,0-1.1.26-1.1.73s.43.66,1.07.77l.59.1c1,.17,1.81.5,1.81,1.43s-.86,1.49-1.95,1.49a2.74,2.74,0,0,1-2.59-1.51l.64-.34A2,2,0,0,0,196,7.71c.74,0,1.22-.32,1.22-.81s-.47-.68-1.15-.79l-.59-.1c-1.07-.18-1.73-.57-1.73-1.42S194.54,3.19,195.61,3.19Z"/><path d="M199.54,1.17a.64.64,0,1,1,0,1.27.62.62,0,0,1-.64-.64A.62.62,0,0,1,199.54,1.17Zm.39,7h-.77V3.33h.77Z"/><path d="M202.28,3.33V1.58H203V3.33h1.61V4H203V7.25c0,.2.1.3.28.3h1.05v.66H203a.71.71,0,0,1-.75-.77V4h-1.52V3.33Z"/><path d="M207.82,3.19a2.24,2.24,0,0,1,2.35,2.4V6h-4a1.65,1.65,0,0,0,1.71,1.68,1.54,1.54,0,0,0,1.53-1l.67.34a2.26,2.26,0,0,1-2.19,1.33,2.47,2.47,0,0,1-2.52-2.62A2.43,2.43,0,0,1,207.82,3.19Zm1.55,2.17a1.44,1.44,0,0,0-1.55-1.49,1.58,1.58,0,0,0-1.65,1.49Z"/><path d="M215.28,4.39V4.27a2.1,2.1,0,0,1-.59-1.39V2.82a1.77,1.77,0,0,1,1.95-1.75,1.81,1.81,0,0,1,2,1.88v.3h-.82V3a1.08,1.08,0,0,0-1.17-1.18,1,1,0,0,0-1.12,1v0c0,.65.54,1.14,1.24,1.84l1.38,1.35h.13l1.05-1.93h.88L218.8,6.61v.13l1.49,1.47h-1l-.86-.85h-.13a2.49,2.49,0,0,1-2,1,2,2,0,0,1-2.15-2A2.52,2.52,0,0,1,215.28,4.39Zm1,3.23a1.76,1.76,0,0,0,1.44-.77V6.72l-1.83-1.79h-.12a1.66,1.66,0,0,0-.86,1.35v0A1.3,1.3,0,0,0,216.3,7.62Z"/><path d="M227.24,1.21A1.85,1.85,0,0,1,229.3,3a1.61,1.61,0,0,1-1.24,1.59v.12a1.58,1.58,0,0,1,1.24,1.6,1.87,1.87,0,0,1-2.09,1.86h-2.88v-7Zm-2.1,3.12h2a1.19,1.19,0,0,0,1.33-1.22,1.18,1.18,0,0,0-1.34-1.17h-2Zm0,3.15h2a1.19,1.19,0,0,0,1.33-1.22c0-.74-.49-1.2-1.37-1.2h-2Z"/><path d="M232.69,3.19a2.42,2.42,0,0,1,2.49,2.58,2.49,2.49,0,1,1-5,0A2.42,2.42,0,0,1,232.69,3.19Zm0,4.47a1.72,1.72,0,0,0,1.73-1.89,1.74,1.74,0,1,0-3.46,0A1.71,1.71,0,0,0,232.69,7.66Z"/><path d="M238.51,3.19A2.43,2.43,0,0,1,241,5.77a2.5,2.5,0,1,1-5,0A2.42,2.42,0,0,1,238.51,3.19Zm0,4.47a1.72,1.72,0,0,0,1.73-1.89,1.74,1.74,0,1,0-3.46,0A1.71,1.71,0,0,0,238.51,7.66Z"/><path d="M244.53,5.26l2.19,3h-.91L244,5.73l-1.06.91V8.21h-.77v-7h.77v4.4H243l2.62-2.28h1.12Z"/><path d="M248.06,1.17a.64.64,0,1,1,0,1.27.62.62,0,0,1-.64-.64A.62.62,0,0,1,248.06,1.17Zm.39,7h-.77V3.33h.77Z"/><path d="M250.65,3.33v.88h.14a1.74,1.74,0,0,1,1.71-1,1.87,1.87,0,0,1,1.94,2v3h-.76V5.32a1.26,1.26,0,0,0-1.4-1.4c-.95,0-1.61.62-1.61,1.82V8.21h-.77V3.33Z"/><path d="M260.53,3.33V8a2.25,2.25,0,0,1-2.4,2.35A2.72,2.72,0,0,1,255.63,9l.67-.39a1.94,1.94,0,0,0,1.78,1.08A1.57,1.57,0,0,0,259.77,8v-.7h-.12a1.9,1.9,0,0,1-1.8,1,2.35,2.35,0,0,1-2.32-2.53,2.34,2.34,0,0,1,2.32-2.52,1.9,1.9,0,0,1,1.8,1h.14V3.33Zm-.76,2.38A1.7,1.7,0,0,0,258,3.88a1.67,1.67,0,0,0-1.71,1.83A1.67,1.67,0,0,0,258,7.55,1.7,1.7,0,0,0,259.77,5.71Z"/><path d="M270,1.21v.73h-2.33V8.21h-.81V1.94h-2.34V1.21Z"/><path d="M272,3.19a2.24,2.24,0,0,1,2.35,2.4V6h-4a1.65,1.65,0,0,0,1.71,1.68,1.54,1.54,0,0,0,1.53-1l.67.34a2.26,2.26,0,0,1-2.19,1.33,2.47,2.47,0,0,1-2.52-2.62A2.43,2.43,0,0,1,272,3.19Zm1.55,2.17A1.44,1.44,0,0,0,272,3.87a1.58,1.58,0,0,0-1.65,1.49Z"/><path d="M277.69,3.19A2.26,2.26,0,0,1,280,5l-.76.18a1.49,1.49,0,0,0-1.57-1.34A1.77,1.77,0,0,0,276,5.77a1.77,1.77,0,0,0,1.76,1.89,1.49,1.49,0,0,0,1.58-1.34l.76.17a2.26,2.26,0,0,1-2.35,1.86,2.49,2.49,0,0,1-2.53-2.58A2.48,2.48,0,0,1,277.69,3.19Z"/><path d="M281.93,1.21v3h.12a1.74,1.74,0,0,1,1.71-1,1.87,1.87,0,0,1,1.94,2v3h-.76V5.32a1.26,1.26,0,0,0-1.4-1.4c-1,0-1.61.62-1.61,1.82V8.21h-.77v-7Z"/><path d="M287.85,3.33v.88H288a1.74,1.74,0,0,1,1.71-1,1.87,1.87,0,0,1,1.94,2v3h-.76V5.32a1.26,1.26,0,0,0-1.4-1.4c-1,0-1.61.62-1.61,1.82V8.21h-.77V3.33Z"/><path d="M295.22,3.19a2.43,2.43,0,0,1,2.5,2.58,2.5,2.5,0,1,1-5,0A2.42,2.42,0,0,1,295.22,3.19Zm0,4.47A1.72,1.72,0,0,0,297,5.77a1.74,1.74,0,1,0-3.46,0A1.71,1.71,0,0,0,295.22,7.66Z"/><path d="M299.63,8.21h-.77v-7h.77Z"/><path d="M303.26,3.19a2.43,2.43,0,0,1,2.5,2.58,2.5,2.5,0,1,1-5,0A2.42,2.42,0,0,1,303.26,3.19Zm0,4.47A1.72,1.72,0,0,0,305,5.77a1.74,1.74,0,1,0-3.46,0A1.71,1.71,0,0,0,303.26,7.66Z"/><path d="M311.59,3.33V8a2.25,2.25,0,0,1-2.4,2.35A2.72,2.72,0,0,1,306.69,9l.67-.39a1.94,1.94,0,0,0,1.78,1.08A1.57,1.57,0,0,0,310.83,8v-.7h-.12a1.9,1.9,0,0,1-1.8,1,2.35,2.35,0,0,1-2.32-2.53,2.34,2.34,0,0,1,2.32-2.52,1.9,1.9,0,0,1,1.8,1h.14V3.33Zm-.76,2.38a1.7,1.7,0,0,0-1.75-1.83,1.67,1.67,0,0,0-1.71,1.83,1.67,1.67,0,0,0,1.71,1.84A1.7,1.7,0,0,0,310.83,5.71Z"/><path d="M317.59,3.33l-2.93,6.88h-.82l.81-1.87-2.11-5h.82l1.65,4h.1l1.65-4Z"/></g></svg>